<mxfile host="app.diagrams.net" modified="2023-04-05T00:11:15.111Z" agent="Mozilla/5.0 (Macintosh; Intel Mac OS X 10_15_7) AppleWebKit/537.36 (KHTML, like Gecko) Chrome/111.0.0.0 Safari/537.36" version="21.1.1" etag="ren5HP-OFYHIXKi-NDj7" type="github">
  <diagram name="Page-1" id="8isZVaWVsnD7cKcAYX_p">
    <mxGraphModel>
      <root>
        <mxCell id="0" />
        <mxCell id="1" parent="0" />
      </root>
    </mxGraphModel>
  </diagram>
</mxfile>
